# xmcd
#
# Track frame offsets:
#	150
#	18727
#	33505
#	58627
#	77546
#	97580
#	111729
#	131784
#	145448
#	162372
#	185845
#	197641
#
# Disc length: 2835 seconds
#
# Revision: 1
# Processed by: cddbd v1.4PL0 Copyright (c) Steve Scherf et al.
# Submitted via: EasyCDDAExtractor 5.0.7
#
DISCID=ac0b110c
DTITLE=Hadhirgaan
DYEAR=2000
DGENRE=Traditional
TTITLE0=Lord MacDonalds Reel, The Barmaid, The Reconciliation
TTITLE1=Riptide, Vega
TTITLE2=Louis Waltz
TTITLE3=Stevens' Tune
TTITLE4=Da Eye Wife, Miss Shepherd, Barrowburn Reel
TTITLE5=Magnus Hendrichson, Astryds' Waltz
TTITLE6=Willafjord, Spootaskerry
TTITLE7=Mrs Violet Eunson
TTITLE8=Cape Breton Fiddlers Welcome to Shetland, MacArthurs Road
TTITLE9=Orkney Anthem
TTITLE10=Calliope House, Tenpenny Bit
TTITLE11=Aberdeen
EXTD=
EXTT0=
EXTT1=
EXTT2=
EXTT3=
EXTT4=
EXTT5=
EXTT6=
EXTT7=
EXTT8=
EXTT9=
EXTT10=
EXTT11=
PLAYORDER=
